# Blender 4.5.4 LTS
# www.blender.org
mtllib cs_techpark_cs01_glider.mtl
o OBJ_cs_techpark_cs01_glider
v 0.000000 0.000000 0.000000
v -21.439209 100.030762 -33.908600
v -99.480469 260.267090 -100.608398
v -208.403534 424.672607 -174.477295
v 219.337158 -55.488525 -112.836029
v 127.432617 -16.260498 -65.832901
v 53.677734 -1.679688 -27.876968
v 63.145996 -4.584473 -381.844971
v 32.321045 96.128418 -358.988586
v -62.418213 257.576416 -324.721558
v -188.684540 423.241211 -293.709717
v -375.235291 637.479980 -265.876282
v 182.894775 30.689697 -166.293793
v 287.069092 -99.500725 -147.503128
v 234.270996 -56.573242 -203.146484
v 162.541748 -18.808105 -278.133728
v 104.986572 -5.401367 -338.141388
v 110.041565 -73.427826 -166.123642
v 109.378853 -69.258026 -165.701248
v 115.075249 -73.780220 -148.372375
v 114.176559 -69.656258 -148.807281
v 116.077499 -70.649811 -142.153870
v 114.806564 -67.969566 -145.187012
v 113.932571 -59.366150 -135.612152
v 120.564095 -59.132179 -93.652771
v 113.404457 -68.504654 -166.810333
v 117.499245 -70.606934 -150.050903
v 118.161781 -68.746628 -146.157120
v 112.412994 -55.914139 -137.555038
v 116.356407 -54.397041 -137.945953
v 118.978737 -55.199760 -93.494019
v 122.912460 -53.610062 -93.557434
v 113.571762 -73.685196 -187.466812
v 113.096474 -69.529060 -188.177521
v 124.051186 -74.434631 -202.639725
v 123.076317 -70.305107 -202.614014
v 127.014275 -71.447174 -208.276169
v 124.844856 -68.701424 -205.877167
v 127.133385 -60.328583 -215.422455
v 146.921692 -61.053818 -253.007324
v 116.553619 -68.734253 -185.849792
v 125.818024 -71.213425 -200.345169
v 127.706108 -69.442467 -203.860901
v 125.082535 -56.837830 -214.153366
v 128.696045 -55.296692 -212.549713
v 145.487106 -57.132416 -253.759918
v 149.197128 -55.526382 -252.471024
v -93.981598 80.886856 -201.691711
v -88.806671 81.404144 -200.446533
v -75.878967 78.434601 -197.459869
v -53.906464 65.125946 -191.963287
v -27.088150 44.351578 -185.011444
v 56.013123 -20.977936 -163.493347
v 76.622665 -32.006714 -163.247711
v 104.143555 -46.404076 -163.955414
v 113.850388 -66.159378 -161.906036
v 124.286613 -93.279198 -141.206116
v -70.932648 62.513092 -195.461655
v -33.610123 32.484726 -182.964661
v 81.474510 -59.459961 -150.083374
v -90.442383 80.628830 -223.089233
v -85.140076 81.136826 -222.614334
v -71.950500 78.148193 -221.210831
v -49.429596 64.799561 -219.029724
v -21.881271 43.971970 -216.491562
v 63.470886 -21.521652 -208.582047
v 83.019653 -32.473099 -201.923080
v 108.791862 -46.742958 -192.058472
v 118.565254 -66.503128 -190.411407
v 135.005249 -94.060661 -206.009552
v -66.685852 62.203476 -221.137299
v -27.443039 32.035110 -220.250015
v 91.745171 -60.208755 -212.178436
v -156.451538 389.768982 -217.163406
v -86.120514 302.868317 -186.006409
v 20.395264 158.925018 -138.773682
v 91.030678 49.126419 -108.237549
v 149.723602 -55.841438 -85.482941
v 169.850861 -103.827538 -76.695938
v 182.521103 -145.969482 -70.072205
v -191.445374 423.616699 -231.082886
v -94.330261 292.604706 -185.197632
v 24.388641 136.742157 -134.067047
v 78.906555 45.175766 -110.419662
v 109.099792 -22.964569 -97.613129
v 118.888634 -65.427414 -91.925629
v 116.612381 -92.669151 -91.060669
v 91.737885 49.214737 -111.181931
v 151.041290 -55.797714 -92.118607
v 171.924194 -103.838814 -87.899643
v 185.637878 -146.249878 -88.452072
v -153.372925 389.544495 -235.776291
v -77.091492 302.210052 -240.594788
v 38.403137 157.612152 -247.646851
v 114.684189 47.401917 -251.243561
v 177.171936 -57.842598 -251.431961
v 198.870865 -105.943275 -252.147064
v 212.835938 -148.179626 -253.351639
v -190.854187 423.573608 -234.657135
v -84.643524 291.898468 -243.762238
v 43.613297 135.340546 -250.296860
v 102.487663 43.456543 -252.987839
v 134.932739 -24.847977 -253.795654
v 145.867126 -67.394318 -255.033966
v 143.655045 -94.957710 -255.981628
v 114.406143 47.562073 -248.231171
v 176.283279 -57.638016 -244.728363
v 197.226730 -105.683525 -240.875366
v 209.868256 -148.016449 -234.945602
v -54.153412 63.356598 -193.759735
v -32.663712 61.638885 -191.089020
v -11.586395 57.399933 -188.650970
v 77.088882 33.629044 -177.078156
v 120.930801 18.277664 -170.588837
v 228.838318 -39.508362 -153.984360
v -28.501373 44.819946 -188.955414
v -22.200256 47.175949 -188.081451
v -11.983246 46.109497 -187.042953
v 21.201324 39.435913 -183.008942
v 66.746246 27.686096 -177.101593
v 118.800148 11.014053 -170.754211
v 240.158646 -50.812172 -151.154205
v -53.218994 62.587463 -201.050690
v -32.130173 60.950134 -195.727127
v -11.270966 56.727081 -191.970490
v 32.415863 46.781784 -183.733795
v -50.250031 63.072006 -217.359085
v -29.051117 61.375488 -212.930176
v -8.327347 57.162323 -208.354736
v 79.261139 33.470673 -190.211349
v 122.798927 18.141479 -181.883362
v 230.084061 -39.599182 -161.515930
v -24.488586 44.527390 -213.216095
v -18.232422 46.886673 -212.070450
v -8.229095 45.835800 -209.740021
v 24.461807 39.198196 -202.721405
v 69.438522 27.489822 -193.378799
v 120.700317 10.875519 -182.242493
v 241.669159 -50.922310 -160.286469
v -51.715668 62.477859 -210.139557
v -30.041916 60.797897 -208.352448
v -9.100037 56.568802 -205.095581
v 34.874420 46.602539 -198.597946
v -174.418640 429.842407 -230.178635
v 5.481918 234.324738 -198.079926
vn 0.4371 0.3714 0.8192
vn 0.6085 0.7883 0.0912
vn 0.9406 0.3021 0.1549
vn 0.9354 0.3084 0.1728
vn -0.0638 -0.0336 0.9974
vn -0.0498 0.0359 0.9981
vn 0.8990 0.4053 0.1660
vn 0.8948 0.4084 0.1804
vn -0.0179 0.0797 0.9967
vn -0.0316 0.1255 0.9916
vn -0.9160 -0.3750 0.1426
vn 0.6892 0.5378 0.4856
vn 0.3739 -0.9267 -0.0388
vn 0.4744 0.4819 0.7367
vn 0.8443 0.5078 0.1710
vn -0.9332 -0.3268 0.1493
vn 0.0195 0.1893 0.9817
vn -0.3555 0.9339 0.0378
vn 0.8318 0.5117 0.2151
vn -0.9332 -0.2958 0.2043
vn -0.9479 -0.2819 0.1481
vn 0.2666 -0.4772 0.8374
vn -0.9535 -0.1731 0.2466
vn -0.9524 -0.1817 0.2450
vn 0.1398 -0.4785 0.8669
vn 0.0002 0.1848 0.9828
vn -0.0828 -0.8977 0.4327
vn -0.0900 -0.8926 0.4418
vn 0.1744 0.4506 0.8755
vn -0.9476 -0.1786 0.2649
vn -0.2573 -0.9650 0.0503
vn 0.5571 0.6286 0.5427
vn -0.9477 -0.1775 0.2652
vn 0.1398 -0.9777 -0.1568
vn 0.8833 0.4473 0.1407
vn 0.2325 0.4536 0.8603
vn 0.1058 0.1539 0.9824
vn -0.0147 0.3204 0.9472
vn 0.8827 0.4483 0.1406
vn 0.6370 0.5825 0.5049
vn 0.4639 0.8834 0.0661
vn 0.0159 -0.2341 -0.9721
vn 0.7952 0.5695 0.2081
vn 0.5532 0.5832 0.5949
vn 0.4701 0.8800 0.0671
vn -0.8126 -0.1873 -0.5520
vn -0.0781 0.9732 -0.2163
vn -0.0838 0.2139 0.9732
vn 0.0681 -0.1777 -0.9817
vn 0.2311 0.9669 0.1078
vn -0.8126 -0.1884 -0.5516
vn 0.1083 -0.1876 -0.9762
vn 0.7046 0.6179 -0.3490
vn 0.6010 0.7941 0.0898
vn 0.4169 0.1312 -0.8994
vn -0.0535 0.9031 0.4262
vn 0.1420 -0.0191 -0.9897
vn -0.8235 -0.1911 -0.5342
vn 0.2522 0.1543 -0.9553
vn -0.0574 0.9080 0.4151
vn -0.8241 -0.1825 -0.5363
vn 0.4487 0.4307 -0.7831
vn 0.6268 0.5798 0.5206
vn 0.7678 0.5730 -0.2865
vn -0.1308 0.2379 0.9624
vn 0.1173 -0.0118 -0.9930
vn -0.4096 0.4981 0.7643
vn -0.8509 -0.2890 -0.4387
vn 0.0913 -0.1550 -0.9837
vn 0.4988 0.4343 -0.7501
vn 0.1841 -0.0046 -0.9829
vn 0.0888 -0.1507 -0.9846
vn -0.2093 0.0565 0.9762
vn -0.5201 0.4957 0.6956
vn -0.0758 0.2119 0.9743
vn -0.8189 -0.3041 -0.4868
vn 0.0805 -0.2188 -0.9724
vn -0.2392 0.2967 0.9245
vn -0.0419 0.4616 0.8861
vn -0.0737 0.4239 0.9027
vn -0.0767 0.4240 0.9024
vn -0.2491 -0.9535 0.1696
vn -0.2106 0.0665 0.9753
vn 0.2922 0.2980 -0.9087
vn -0.2020 0.3600 0.9108
vn 0.6011 0.7941 0.0898
vn 0.5955 0.7984 0.0889
vn -0.2091 -0.9705 0.1201
vn -0.0908 -0.9915 0.0930
vn -0.2253 -0.9588 0.1729
vn 0.2086 -0.0119 -0.9779
vn -0.1102 -0.9849 0.1336
vn -0.2231 0.0339 0.9742
vn 0.2307 0.1316 -0.9641
vn 0.5795 0.5923 0.5597
vn -0.2312 -0.0283 0.9725
vn 0.9416 0.3021 0.1491
vn 0.2334 0.1273 -0.9640
vn 0.5033 0.8610 0.0729
vn 0.2347 0.1908 -0.9532
vn 0.6051 0.7910 0.0905
vn 0.2377 0.1956 -0.9514
vn -0.2603 0.0573 0.9638
vn -0.8367 -0.3338 -0.4341
vn -0.3208 0.9314 -0.1722
vn 0.2185 0.9755 0.0244
vn 0.2426 0.1887 -0.9516
vn -0.0929 0.9953 -0.0274
vn 0.2224 0.4023 -0.8881
vn -0.0723 -0.2740 0.9590
vn 0.1033 0.3378 -0.9355
vn 0.2195 0.4024 -0.8888
vn 0.2473 0.4406 -0.8630
vn -0.1849 -0.9582 -0.2183
vn 0.1613 0.9635 0.2137
vn 0.0652 0.9882 0.1388
vn 0.1868 0.2148 -0.9586
vn 0.9424 0.3079 0.1304
vn 0.1631 0.9739 0.1582
vn 0.0599 0.9938 0.0939
vn 0.1163 0.0329 -0.9927
vn 0.1148 0.0428 -0.9925
vn -0.8228 -0.3818 -0.4210
vn -0.2734 -0.0111 0.9618
vn 0.1024 0.0103 -0.9947
vn -0.3379 0.9240 -0.1788
vn 0.9061 0.4048 0.1228
vn 0.0940 -0.0519 -0.9942
vn 0.1999 -0.1688 -0.9652
vn -0.3041 -0.0563 0.9510
vn 0.7312 0.5813 -0.3571
vn 0.9068 0.4075 0.1078
vn -0.2897 -0.1021 0.9517
vn 0.8564 0.5070 0.0980
vn -0.3352 -0.1663 0.9274
vn 0.1544 -0.1998 -0.9676
vn 0.7175 0.5712 -0.3986
vn 0.6091 0.6237 0.4899
vn -0.8587 -0.5098 -0.0522
vn -0.3172 -0.1617 0.9345
vn 0.2987 0.2112 -0.9307
vn -0.8221 -0.5675 -0.0457
vn 0.2124 0.1643 -0.9633
vn 0.1675 -0.2099 -0.9633
vn 0.1221 0.1454 -0.9818
vn 0.6235 0.6460 0.4404
vn 0.7632 0.5699 -0.3046
vn 0.1660 0.1765 -0.9702
vn 0.2004 -0.1882 -0.9615
vn 0.6881 0.4664 -0.5558
vn 0.1523 0.1866 -0.9706
vn 0.1204 0.1648 -0.9790
vn -0.6789 -0.3538 0.6434
vn 0.7346 0.6379 -0.2312
vn 0.7368 0.6144 -0.2822
vn 0.8109 0.5290 -0.2503
vn 0.6094 0.6639 0.4334
vn 0.7190 0.6559 -0.2296
s 0
f 1//1 7//1 2//1
f 91//2 87//2 80//2
f 90//3 80//3 91//3
f 90//4 79//4 80//4
f 90//5 87//5 91//5
f 90//6 86//6 87//6
f 89//7 79//7 90//7
f 89//8 78//8 79//8
f 89//9 86//9 90//9
f 89//10 85//10 86//10
f 25//11 31//11 29//11
f 3//12 2//12 7//12
f 31//13 30//13 32//13
f 3//14 7//14 6//14
f 88//15 78//15 89//15
f 25//16 29//16 24//16
f 88//17 85//17 89//17
f 31//18 30//18 29//18
f 88//19 77//19 78//19
f 22//20 24//20 29//20
f 22//21 29//21 23//21
f 30//22 29//22 23//22
f 22//23 23//23 21//23
f 22//24 21//24 20//24
f 30//25 23//25 28//25
f 88//26 84//26 85//26
f 21//27 28//27 23//27
f 21//28 27//28 28//28
f 60//29 57//29 54//29
f 20//30 21//30 19//30
f 19//31 27//31 21//31
f 54//32 57//32 56//32
f 20//33 19//33 18//33
f 19//34 26//34 27//34
f 56//35 57//35 70//35
f 60//36 54//36 53//36
f 54//37 56//37 55//37
f 59//38 60//38 53//38
f 55//39 56//39 69//39
f 5//40 14//40 13//40
f 68//41 54//41 55//41
f 76//42 88//42 84//42
f 76//43 77//43 88//43
f 56//35 70//35 69//35
f 145//44 6//44 5//44
f 53//45 54//45 67//45
f 55//39 69//39 68//39
f 35//46 33//46 34//46
f 34//47 41//47 42//47
f 59//48 53//48 52//48
f 115//49 122//49 121//49
f 68//41 67//41 54//41
f 34//50 42//50 36//50
f 35//51 34//51 36//51
f 76//52 84//52 83//52
f 67//53 69//53 70//53
f 52//54 53//54 66//54
f 67//55 68//55 69//55
f 53//45 67//45 66//45
f 36//56 42//56 43//56
f 115//57 121//57 114//57
f 37//58 35//58 36//58
f 132//59 139//59 138//59
f 36//60 43//60 38//60
f 37//61 36//61 38//61
f 73//62 67//62 70//62
f 145//63 3//63 6//63
f 15//64 13//64 14//64
f 58//65 59//65 52//65
f 114//66 121//66 120//66
f 45//67 38//67 43//67
f 37//68 38//68 44//68
f 114//69 120//69 113//69
f 73//70 66//70 67//70
f 132//71 138//71 131//71
f 113//72 120//72 119//72
f 58//73 52//73 51//73
f 45//74 44//74 38//74
f 126//75 118//75 119//75
f 37//76 44//76 39//76
f 113//77 119//77 126//77
f 123//78 116//78 117//78
f 124//79 117//79 118//79
f 126//80 125//80 118//80
f 124//81 118//81 125//81
f 125//82 126//82 112//82
f 48//83 58//83 51//83
f 72//84 66//84 73//84
f 123//85 117//85 124//85
f 52//86 66//86 65//86
f 51//87 52//87 65//87
f 124//88 112//88 111//88
f 123//89 111//89 110//89
f 124//90 125//90 112//90
f 131//91 138//91 137//91
f 123//92 124//92 111//92
f 48//93 51//93 50//93
f 131//94 137//94 130//94
f 5//95 13//95 145//95
f 48//96 50//96 49//96
f 108//97 109//97 98//97
f 130//98 137//98 136//98
f 50//99 51//99 64//99
f 72//100 65//100 66//100
f 109//101 98//101 105//101
f 130//102 136//102 143//102
f 108//103 105//103 109//103
f 40//104 39//104 44//104
f 46//105 44//105 45//105
f 49//106 50//106 63//106
f 143//107 136//107 135//107
f 51//87 65//87 64//87
f 48//108 49//108 62//108
f 143//109 135//109 142//109
f 140//110 133//110 134//110
f 140//111 141//111 134//111
f 141//112 142//112 135//112
f 141//113 135//113 134//113
f 142//114 129//114 143//114
f 141//115 142//115 129//115
f 140//116 141//116 128//116
f 71//117 65//117 72//117
f 108//118 98//118 97//118
f 141//119 129//119 128//119
f 140//120 128//120 127//120
f 50//99 64//99 63//99
f 48//108 62//108 61//108
f 49//106 63//106 62//106
f 71//121 64//121 65//121
f 61//122 64//122 71//122
f 40//123 44//123 46//123
f 108//124 104//124 105//124
f 61//125 63//125 64//125
f 46//126 45//126 47//126
f 107//127 108//127 97//127
f 61//128 62//128 63//128
f 75//129 76//129 83//129
f 107//130 104//130 108//130
f 15//131 145//131 13//131
f 107//132 97//132 96//132
f 107//133 103//133 104//133
f 106//134 107//134 96//134
f 106//135 103//135 107//135
f 75//136 83//136 82//136
f 145//137 15//137 16//137
f 145//138 4//138 3//138
f 106//139 95//139 96//139
f 106//140 102//140 103//140
f 94//141 106//141 102//141
f 94//142 95//142 106//142
f 94//143 102//143 101//143
f 74//144 75//144 82//144
f 93//145 94//145 101//145
f 145//146 144//146 4//146
f 145//147 16//147 10//147
f 93//148 101//148 100//148
f 74//149 82//149 81//149
f 10//150 16//150 17//150
f 92//151 93//151 100//151
f 92//152 100//152 99//152
f 8//153 17//153 9//153
f 145//154 11//154 144//154
f 145//155 10//155 11//155
f 10//156 17//156 9//156
f 144//157 12//157 4//157
f 144//158 11//158 12//158
