# Blender 4.5.4 LTS
# www.blender.org
mtllib CS_yard_cs02_lift_new.mtl
o OBJ_CS_yard_cs02_lift_new
v 0.000000 0.000000 0.000000
v 90.000000 0.006302 0.000349
v 89.993744 20.006271 0.006629
v -0.006256 20.000000 0.006264
v -0.000366 -0.006226 49.999992
v 89.999695 0.000000 50.000324
v 89.993378 20.000000 50.006638
v -0.006622 19.993729 50.006271
v -149.497589 -0.006226 -0.502721
v -109.497589 -0.006226 -0.502736
v -109.497589 19.993774 -0.502738
v -149.497589 19.993774 -0.502712
v -149.497589 -0.006226 49.497284
v -109.497589 -0.006226 49.497261
v -109.497574 19.993774 49.497261
v -149.497574 19.993774 49.497288
v -115.024078 -0.024796 -0.019432
v 4.975922 -0.024796 -0.019432
v 4.975922 19.975204 -0.019435
v -115.024063 19.975204 -0.019435
v -115.024078 -0.024796 49.980564
v 4.975922 -0.024796 49.980564
v 4.975922 19.975204 49.980564
v -115.024063 19.975204 49.980564
vn -0.0000 -0.0000 -1.0000
vn -0.0000 0.0003 -1.0000
vn 1.0000 -0.0000 -0.0000
vn -0.0000 -1.0000 -0.0000
vn -0.0000 1.0000 -0.0000
vn -1.0000 -0.0000 -0.0000
vn 0.0001 -1.0000 -0.0001
vn -1.0000 -0.0003 -0.0000
vn 1.0000 0.0003 -0.0000
vn -0.0001 1.0000 0.0001
vn -0.0000 -0.0000 1.0000
vn -0.0000 -0.0003 1.0000
s 0
f 9//1 11//1 10//1
f 9//1 12//1 11//1
f 17//1 20//1 19//1
f 17//1 19//1 18//1
f 1//2 3//2 2//2
f 1//2 4//2 3//2
f 10//3 11//3 15//3
f 9//4 10//4 14//4
f 11//5 12//5 15//5
f 12//6 9//6 16//6
f 18//3 19//3 23//3
f 19//5 20//5 23//5
f 17//4 18//4 22//4
f 20//6 17//6 24//6
f 1//7 2//7 6//7
f 4//8 1//8 8//8
f 2//9 3//9 7//9
f 3//10 4//10 7//10
f 10//3 15//3 14//3
f 9//4 14//4 13//4
f 15//5 12//5 16//5
f 16//6 9//6 13//6
f 18//3 23//3 22//3
f 17//4 22//4 21//4
f 23//5 20//5 24//5
f 24//6 17//6 21//6
f 1//7 6//7 5//7
f 8//8 1//8 5//8
f 2//9 7//9 6//9
f 7//10 4//10 8//10
f 15//11 13//11 14//11
f 16//11 13//11 15//11
f 23//11 21//11 22//11
f 24//11 21//11 23//11
f 7//12 5//12 6//12
f 8//12 5//12 7//12
