# Blender 4.5.4 LTS
# www.blender.org
mtllib CS_yard_cs02_lift.mtl
o OBJ_CS_yard_cs02_lift
v 0.000000 0.000000 0.000000
v 30.000000 -0.363831 -0.791355
v 30.000000 219.011169 -0.797422
v 0.000000 219.011169 -0.071903
v 0.000000 0.032593 49.988747
v 30.000000 -0.363831 49.207371
v 30.000000 219.011169 49.172104
v 0.000000 219.011169 49.946190
v 149.440735 219.017456 17.580267
v 259.440704 219.023804 17.580589
v 259.434448 239.023804 17.586906
v 149.434448 239.017456 17.586548
v 149.440369 219.011169 67.580261
v 259.440399 219.017456 67.580574
v 259.434082 239.017456 67.586906
v 149.434082 239.011169 67.586555
v -0.056885 219.011169 17.077547
v 39.943115 219.011169 17.077530
v 39.943115 239.011169 17.077534
v -0.056885 239.011169 17.077553
v -0.056885 219.011169 67.077553
v 39.943115 219.011169 67.077538
v 39.943130 239.011169 67.077530
v -0.056885 239.011169 67.077553
v 229.943115 -0.988831 17.077555
v 259.943115 -0.988831 17.077526
v 259.928497 219.673767 17.077528
v 229.957733 218.348572 17.077559
v 229.943115 -0.988831 67.077560
v 259.943115 -0.988831 67.077530
v 259.928497 219.673767 67.077530
v 229.957733 218.348572 67.077560
v 34.470749 218.992676 17.560734
v 154.470245 219.318604 17.560745
v 154.415985 239.318726 17.560757
v 34.416428 238.992615 17.560743
v 34.470749 218.992676 67.560745
v 154.470245 219.318604 67.560722
v 154.415985 239.318726 67.560715
v 34.416428 238.992615 67.560738
v 0.000000 -44.988831 17.560831
v 260.000000 -44.988831 17.560831
v 260.000000 0.011169 17.560831
v 0.000000 0.011169 17.560831
v 0.000000 -44.988831 67.560829
v 260.000000 -44.988831 67.560829
v 260.000000 0.011169 67.560829
v 0.000000 0.011169 67.560829
vn -0.0264 -0.0000 -0.9997
vn -0.0242 -0.0003 -0.9997
vn 1.0000 -0.0000 -0.0000
vn -0.0000 1.0000 -0.0000
vn -0.0121 -0.9999 -0.0000
vn -1.0000 -0.0000 -0.0000
vn -0.0000 -0.0000 -1.0000
vn -0.0000 0.0003 -1.0000
vn -0.0132 -0.9999 0.0007
vn 1.0000 0.0001 -0.0000
vn -0.0000 -1.0000 -0.0000
vn -0.0442 0.9990 -0.0000
vn -1.0000 0.0001 -0.0000
vn 0.0027 -1.0000 -0.0000
vn -0.0027 1.0000 -0.0000
vn -1.0000 -0.0027 -0.0000
vn 1.0000 0.0027 -0.0000
vn 0.0001 -1.0000 -0.0001
vn -1.0000 -0.0003 -0.0000
vn 1.0000 0.0003 -0.0000
vn -0.0001 1.0000 0.0001
vn 0.0260 0.0002 0.9997
vn 0.0258 0.0002 0.9997
vn -0.0000 -0.0000 1.0000
vn -0.0000 -0.0003 1.0000
s 0
f 1//1 3//1 2//1
f 1//2 4//2 3//2
f 2//3 3//3 7//3
f 3//4 4//4 7//4
f 1//5 2//5 6//5
f 4//6 1//6 8//6
f 25//7 27//7 26//7
f 17//7 19//7 18//7
f 17//7 20//7 19//7
f 25//7 28//7 27//7
f 33//7 36//7 35//7
f 33//7 35//7 34//7
f 41//7 44//7 43//7
f 41//7 43//7 42//7
f 9//8 11//8 10//8
f 9//8 12//8 11//8
f 2//3 7//3 6//3
f 7//4 4//4 8//4
f 1//9 6//9 5//9
f 8//6 1//6 5//6
f 26//10 27//10 31//10
f 18//3 19//3 23//3
f 17//11 18//11 22//11
f 25//11 26//11 30//11
f 19//4 20//4 23//4
f 27//12 28//12 31//12
f 20//6 17//6 24//6
f 28//13 25//13 32//13
f 33//14 34//14 38//14
f 35//15 36//15 39//15
f 36//16 33//16 40//16
f 34//17 35//17 39//17
f 44//6 41//6 48//6
f 41//11 42//11 46//11
f 43//4 44//4 47//4
f 42//3 43//3 47//3
f 9//18 10//18 14//18
f 12//19 9//19 16//19
f 10//20 11//20 15//20
f 11//21 12//21 15//21
f 7//22 5//22 6//22
f 8//23 5//23 7//23
f 26//10 31//10 30//10
f 18//3 23//3 22//3
f 17//11 22//11 21//11
f 25//11 30//11 29//11
f 23//4 20//4 24//4
f 24//6 17//6 21//6
f 31//12 28//12 32//12
f 32//13 25//13 29//13
f 34//17 39//17 38//17
f 39//15 36//15 40//15
f 33//14 38//14 37//14
f 40//16 33//16 37//16
f 48//6 41//6 45//6
f 41//11 46//11 45//11
f 47//4 44//4 48//4
f 42//3 47//3 46//3
f 9//18 14//18 13//18
f 16//19 9//19 13//19
f 10//20 15//20 14//20
f 15//21 12//21 16//21
f 23//24 21//24 22//24
f 31//24 29//24 30//24
f 24//24 21//24 23//24
f 32//24 29//24 31//24
f 39//24 37//24 38//24
f 40//24 37//24 39//24
f 48//24 45//24 47//24
f 47//24 45//24 46//24
f 15//25 13//25 14//25
f 16//25 13//25 15//25
