# Blender 4.5.4 LTS
# www.blender.org
mtllib bike.mtl
o OBJ_bike
v 201.379639 0.461353 -32.804955
v -46.307495 58.439819 -28.039936
v 107.502319 71.224449 -13.785595
v 11.111816 110.094017 -22.465101
v -103.919617 86.761383 -33.326969
v -109.490356 96.882851 -46.827515
v 128.276611 89.112640 -21.717115
v -98.392944 0.230583 -6.111588
v 22.654297 98.731255 -24.372234
v 201.390747 0.461343 -46.859211
v -46.288574 58.439819 -52.018391
v 11.139465 110.093987 -57.501911
v -31.139221 33.406487 -21.665895
v -109.500977 96.882858 -33.331413
v 211.870667 15.024682 -30.533924
v 197.715637 52.816536 -27.223530
v 107.543579 71.224411 -66.028000
v -103.909058 86.761383 -46.823067
v -98.339233 0.230535 -74.029526
v 22.678955 98.731232 -55.576408
v 128.305359 89.112610 -58.063454
v -31.110229 33.406460 -58.368263
v 211.885315 15.024669 -49.113564
v 197.735535 52.816521 -52.446518
vn -0.4425 0.8968 -0.0004
vn -0.8757 -0.4829 -0.0007
vn -0.4411 -0.8974 -0.0003
vn -0.8552 -0.5183 -0.0007
vn 0.0008 -1.0000 -0.0000
vn 0.0865 0.2764 -0.9571
vn -0.0830 -0.0462 -0.9955
vn -0.0917 -0.0038 -0.9958
vn -0.1089 0.9941 -0.0001
vn -0.0846 -0.0462 0.9953
vn -0.0932 -0.0038 0.9956
vn 0.0850 0.2764 0.9573
vn 0.0889 0.2952 -0.9513
vn 0.0295 -0.1378 -0.9900
vn 0.0874 0.2952 0.9514
vn -0.0969 0.0782 -0.9922
vn 0.0279 -0.1378 0.9901
vn -0.0581 -0.3321 -0.9414
vn 0.7016 0.7126 0.0006
vn -0.0984 0.0782 0.9921
vn 0.3084 0.9513 0.0002
vn -0.0596 -0.3321 0.9413
vn -0.6526 0.7577 -0.0005
vn 0.0556 -0.1917 -0.9799
vn 0.2373 0.1518 -0.9595
vn 0.8113 -0.5846 0.0006
vn 0.0540 -0.1917 0.9800
vn 0.0431 -0.0717 -0.9965
vn 0.4633 0.8862 0.0004
vn 0.2358 0.1518 0.9599
vn 0.9365 0.3507 0.0007
vn 0.0415 -0.0717 0.9966
s 0
f 22//1 19//1 8//1
f 22//1 8//1 13//1
f 6//2 18//2 5//2
f 6//2 5//2 14//2
f 18//3 2//3 5//3
f 18//3 11//3 2//3
f 11//4 22//4 13//4
f 1//5 8//5 19//5
f 11//4 13//4 2//4
f 10//6 19//6 22//6
f 6//7 12//7 18//7
f 11//8 18//8 12//8
f 4//9 6//9 14//9
f 14//10 5//10 4//10
f 2//11 4//11 5//11
f 1//12 13//12 8//12
f 10//13 22//13 11//13
f 11//14 12//14 20//14
f 4//9 12//9 6//9
f 1//15 2//15 13//15
f 11//16 20//16 17//16
f 1//5 19//5 10//5
f 2//17 9//17 4//17
f 11//18 17//18 10//18
f 20//19 12//19 4//19
f 2//20 3//20 9//20
f 20//19 4//19 9//19
f 9//21 17//21 20//21
f 2//22 1//22 3//22
f 9//21 3//21 17//21
f 21//23 17//23 3//23
f 23//24 10//24 17//24
f 23//25 17//25 21//25
f 1//26 10//26 23//26
f 21//23 3//23 7//23
f 15//27 3//27 1//27
f 21//28 24//28 23//28
f 1//26 23//26 15//26
f 24//29 21//29 7//29
f 15//30 7//30 3//30
f 24//31 15//31 23//31
f 7//32 15//32 16//32
f 24//29 7//29 16//29
f 24//31 16//31 15//31
